<svg xmlns="http://www.w3.org/2000/svg" width="400" height="300" viewBox="0 0 400 300">
<defs>
</defs>
<g transform="translate(0 0)"><g transform="translate(24 60)"><path d="M 2.40 9.42 L 13.69 9.42 L 13.69 11.45 L 4.82 11.45 L 4.82 16.74 L 13.32 16.74 L 13.32 18.77 L 4.82 18.77 L 4.82 25.24 L 13.90 25.24 L 13.90 27.27 L 2.40 27.27 L 2.40 9.42 Z" fill="#000000"/><path d="M 28.90 13.88 L 24.06 20.39 L 29.15 27.27 L 26.56 27.27 L 22.66 22.01 L 18.77 27.27 L 16.17 27.27 L 21.37 20.26 L 16.61 13.88 L 19.21 13.88 L 22.76 18.65 L 26.31 13.88 L 28.90 13.88 Z" fill="#000000"/><path d="M 34.39 25.26 L 34.39 32.36 L 32.18 32.36 L 32.18 13.88 L 34.39 13.88 L 34.39 15.91 Q 35.08 14.72 36.14 14.14 Q 37.20 13.56 38.67 13.56 Q 41.11 13.56 42.63 15.49 Q 44.15 17.43 44.15 20.59 Q 44.15 23.74 42.63 25.68 Q 41.11 27.61 38.67 27.61 Q 37.20 27.61 36.14 27.03 Q 35.08 26.45 34.39 25.26 Z M 41.87 20.59 Q 41.87 18.16 40.87 16.78 Q 39.88 15.40 38.13 15.40 Q 36.39 15.40 35.39 16.78 Q 34.39 18.16 34.39 20.59 Q 34.39 23.01 35.39 24.39 Q 36.39 25.77 38.13 25.77 Q 39.88 25.77 40.87 24.39 Q 41.87 23.01 41.87 20.59 Z" fill="#000000"/><path d="M 52.99 15.42 Q 51.22 15.42 50.19 16.80 Q 49.16 18.18 49.16 20.59 Q 49.16 22.99 50.19 24.37 Q 51.21 25.75 52.99 25.75 Q 54.75 25.75 55.77 24.36 Q 56.80 22.98 56.80 20.59 Q 56.80 18.21 55.77 16.81 Q 54.75 15.42 52.99 15.42 Z M 52.99 13.56 Q 55.86 13.56 57.49 15.42 Q 59.13 17.29 59.13 20.59 Q 59.13 23.87 57.49 25.74 Q 55.86 27.61 52.99 27.61 Q 50.11 27.61 48.48 25.74 Q 46.84 23.87 46.84 20.59 Q 46.84 17.29 48.48 15.42 Q 50.11 13.56 52.99 13.56 Z" fill="#000000"/><path d="M 70.54 15.94 Q 70.16 15.72 69.73 15.62 Q 69.29 15.52 68.77 15.52 Q 66.90 15.52 65.90 16.73 Q 64.91 17.94 64.91 20.22 L 64.91 27.27 L 62.69 27.27 L 62.69 13.88 L 64.91 13.88 L 64.91 15.96 Q 65.60 14.74 66.71 14.15 Q 67.82 13.56 69.41 13.56 Q 69.64 13.56 69.91 13.59 Q 70.19 13.62 70.52 13.68 L 70.54 15.94 Z" fill="#000000"/><path d="M 75.02 10.08 L 75.02 13.88 L 79.55 13.88 L 79.55 15.59 L 75.02 15.59 L 75.02 22.86 Q 75.02 24.49 75.47 24.96 Q 75.91 25.43 77.29 25.43 L 79.55 25.43 L 79.55 27.27 L 77.29 27.27 Q 74.74 27.27 73.77 26.32 Q 72.81 25.37 72.81 22.86 L 72.81 15.59 L 71.19 15.59 L 71.19 13.88 L 72.81 13.88 L 72.81 10.08 L 75.02 10.08 Z" fill="#000000"/><path d="M 98.78 18.90 Q 99.56 19.16 100.29 20.02 Q 101.03 20.88 101.77 22.39 L 104.22 27.27 L 101.63 27.27 L 99.34 22.69 Q 98.46 20.90 97.63 20.31 Q 96.80 19.73 95.36 19.73 L 92.73 19.73 L 92.73 27.27 L 90.32 27.27 L 90.32 9.42 L 95.77 9.42 Q 98.83 9.42 100.33 10.70 Q 101.84 11.98 101.84 14.56 Q 101.84 16.25 101.06 17.36 Q 100.27 18.47 98.78 18.90 Z M 92.73 11.41 L 92.73 17.74 L 95.77 17.74 Q 97.51 17.74 98.40 16.93 Q 99.29 16.13 99.29 14.56 Q 99.29 13.00 98.40 12.20 Q 97.51 11.41 95.77 11.41 L 92.73 11.41 Z" fill="#000000"/><path d="M 117.58 20.02 L 117.58 21.10 L 107.47 21.10 Q 107.61 23.37 108.84 24.56 Q 110.06 25.75 112.25 25.75 Q 113.52 25.75 114.71 25.44 Q 115.90 25.13 117.07 24.51 L 117.07 26.59 Q 115.89 27.09 114.64 27.35 Q 113.40 27.61 112.12 27.61 Q 108.92 27.61 107.05 25.75 Q 105.18 23.88 105.18 20.71 Q 105.18 17.42 106.95 15.49 Q 108.73 13.56 111.74 13.56 Q 114.44 13.56 116.01 15.30 Q 117.58 17.04 117.58 20.02 Z M 115.38 19.38 Q 115.36 17.57 114.37 16.50 Q 113.39 15.42 111.76 15.42 Q 109.92 15.42 108.82 16.46 Q 107.71 17.50 107.54 19.39 L 115.38 19.38 Z" fill="#000000"/><path d="M 130.00 20.42 Q 130.00 18.03 129.02 16.71 Q 128.03 15.40 126.25 15.40 Q 124.48 15.40 123.49 16.71 Q 122.51 18.03 122.51 20.42 Q 122.51 22.80 123.49 24.11 Q 124.48 25.43 126.25 25.43 Q 128.03 25.43 129.02 24.11 Q 130.00 22.80 130.00 20.42 Z M 132.20 25.61 Q 132.20 29.02 130.68 30.69 Q 129.17 32.36 126.03 32.36 Q 124.87 32.36 123.85 32.19 Q 122.82 32.01 121.85 31.65 L 121.85 29.51 Q 122.82 30.04 123.76 30.29 Q 124.71 30.54 125.69 30.54 Q 127.85 30.54 128.93 29.41 Q 130.00 28.28 130.00 26.00 L 130.00 24.91 Q 129.32 26.10 128.26 26.68 Q 127.19 27.27 125.71 27.27 Q 123.25 27.27 121.74 25.39 Q 120.24 23.51 120.24 20.42 Q 120.24 17.31 121.74 15.43 Q 123.25 13.56 125.71 13.56 Q 127.19 13.56 128.26 14.14 Q 129.32 14.73 130.00 15.91 L 130.00 13.88 L 132.20 13.88 L 132.20 25.61 Z" fill="#000000"/><path d="M 144.49 15.94 Q 144.12 15.72 143.68 15.62 Q 143.25 15.52 142.72 15.52 Q 140.86 15.52 139.86 16.73 Q 138.86 17.94 138.86 20.22 L 138.86 27.27 L 136.65 27.27 L 136.65 13.88 L 138.86 13.88 L 138.86 15.96 Q 139.55 14.74 140.66 14.15 Q 141.78 13.56 143.37 13.56 Q 143.59 13.56 143.87 13.59 Q 144.14 13.62 144.48 13.68 L 144.49 15.94 Z" fill="#000000"/><path d="M 157.71 20.02 L 157.71 21.10 L 147.60 21.10 Q 147.74 23.37 148.97 24.56 Q 150.19 25.75 152.38 25.75 Q 153.65 25.75 154.83 25.44 Q 156.02 25.13 157.20 24.51 L 157.20 26.59 Q 156.01 27.09 154.77 27.35 Q 153.53 27.61 152.25 27.61 Q 149.04 27.61 147.17 25.75 Q 145.30 23.88 145.30 20.71 Q 145.30 17.42 147.08 15.49 Q 148.85 13.56 151.86 13.56 Q 154.57 13.56 156.14 15.30 Q 157.71 17.04 157.71 20.02 Z M 155.51 19.38 Q 155.49 17.57 154.50 16.50 Q 153.51 15.42 151.89 15.42 Q 150.05 15.42 148.94 16.46 Q 147.84 17.50 147.67 19.39 L 155.51 19.38 Z" fill="#000000"/><path d="M 169.85 14.27 L 169.85 16.35 Q 168.92 15.88 167.92 15.64 Q 166.91 15.40 165.84 15.40 Q 164.20 15.40 163.38 15.90 Q 162.56 16.40 162.56 17.41 Q 162.56 18.17 163.15 18.61 Q 163.73 19.04 165.50 19.44 L 166.26 19.61 Q 168.60 20.11 169.58 21.02 Q 170.57 21.94 170.57 23.57 Q 170.57 25.44 169.09 26.53 Q 167.62 27.61 165.04 27.61 Q 163.96 27.61 162.80 27.40 Q 161.63 27.20 160.34 26.78 L 160.34 24.51 Q 161.56 25.14 162.74 25.46 Q 163.93 25.77 165.08 25.77 Q 166.64 25.77 167.48 25.24 Q 168.31 24.71 168.31 23.74 Q 168.31 22.84 167.71 22.37 Q 167.10 21.89 165.06 21.45 L 164.30 21.27 Q 162.25 20.84 161.34 19.95 Q 160.43 19.06 160.43 17.50 Q 160.43 15.61 161.77 14.59 Q 163.11 13.56 165.57 13.56 Q 166.79 13.56 167.87 13.74 Q 168.95 13.92 169.85 14.27 Z" fill="#000000"/><path d="M 182.61 14.27 L 182.61 16.35 Q 181.68 15.88 180.67 15.64 Q 179.67 15.40 178.59 15.40 Q 176.95 15.40 176.14 15.90 Q 175.32 16.40 175.32 17.41 Q 175.32 18.17 175.90 18.61 Q 176.49 19.04 178.26 19.44 L 179.01 19.61 Q 181.35 20.11 182.34 21.02 Q 183.33 21.94 183.33 23.57 Q 183.33 25.44 181.85 26.53 Q 180.37 27.61 177.79 27.61 Q 176.71 27.61 175.55 27.40 Q 174.38 27.20 173.09 26.78 L 173.09 24.51 Q 174.31 25.14 175.50 25.46 Q 176.68 25.77 177.84 25.77 Q 179.39 25.77 180.23 25.24 Q 181.07 24.71 181.07 23.74 Q 181.07 22.84 180.46 22.37 Q 179.86 21.89 177.81 21.45 L 177.05 21.27 Q 175.01 20.84 174.10 19.95 Q 173.19 19.06 173.19 17.50 Q 173.19 15.61 174.53 14.59 Q 175.87 13.56 178.33 13.56 Q 179.55 13.56 180.62 13.74 Q 181.70 13.92 182.61 14.27 Z" fill="#000000"/><path d="M 186.83 13.88 L 189.03 13.88 L 189.03 27.27 L 186.83 27.27 L 186.83 13.88 Z M 186.83 8.67 L 189.03 8.67 L 189.03 11.45 L 186.83 11.45 L 186.83 8.67 Z" fill="#000000"/><path d="M 198.82 15.42 Q 197.05 15.42 196.02 16.80 Q 194.99 18.18 194.99 20.59 Q 194.99 22.99 196.01 24.37 Q 197.04 25.75 198.82 25.75 Q 200.57 25.75 201.60 24.36 Q 202.63 22.98 202.63 20.59 Q 202.63 18.21 201.60 16.81 Q 200.57 15.42 198.82 15.42 Z M 198.82 13.56 Q 201.69 13.56 203.32 15.42 Q 204.96 17.29 204.96 20.59 Q 204.96 23.87 203.32 25.74 Q 201.69 27.61 198.82 27.61 Q 195.94 27.61 194.30 25.74 Q 192.67 23.87 192.67 20.59 Q 192.67 17.29 194.30 15.42 Q 195.94 13.56 198.82 13.56 Z" fill="#000000"/><path d="M 219.73 19.19 L 219.73 27.27 L 217.53 27.27 L 217.53 19.26 Q 217.53 17.36 216.79 16.41 Q 216.05 15.47 214.57 15.47 Q 212.79 15.47 211.76 16.61 Q 210.73 17.74 210.73 19.70 L 210.73 27.27 L 208.52 27.27 L 208.52 13.88 L 210.73 13.88 L 210.73 15.96 Q 211.52 14.75 212.59 14.15 Q 213.66 13.56 215.06 13.56 Q 217.37 13.56 218.55 14.99 Q 219.73 16.41 219.73 19.19 Z" fill="#000000"/></g>
<g transform="translate(24 120)"><path d="M 7.02 8.47 L 7.02 9.68 Q 6.48 9.37 5.92 9.22 Q 5.37 9.07 4.81 9.07 Q 3.55 9.07 2.85 9.87 Q 2.16 10.67 2.16 12.11 Q 2.16 13.55 2.85 14.35 Q 3.55 15.15 4.81 15.15 Q 5.37 15.15 5.92 15.00 Q 6.48 14.84 7.02 14.54 L 7.02 15.74 Q 6.48 15.99 5.90 16.12 Q 5.32 16.24 4.67 16.24 Q 2.89 16.24 1.84 15.13 Q 0.79 14.01 0.79 12.11 Q 0.79 10.18 1.85 9.08 Q 2.91 7.97 4.75 7.97 Q 5.35 7.97 5.92 8.10 Q 6.49 8.22 7.02 8.47 Z" fill="#000000"/><path d="M 12.85 12.08 Q 11.29 12.08 10.68 12.44 Q 10.08 12.80 10.08 13.66 Q 10.08 14.35 10.53 14.76 Q 10.98 15.16 11.76 15.16 Q 12.84 15.16 13.49 14.40 Q 14.14 13.63 14.14 12.37 L 14.14 12.08 L 12.85 12.08 Z M 15.43 11.55 L 15.43 16.04 L 14.14 16.04 L 14.14 14.84 Q 13.70 15.56 13.04 15.90 Q 12.37 16.24 11.42 16.24 Q 10.21 16.24 9.50 15.57 Q 8.78 14.89 8.78 13.75 Q 8.78 12.42 9.67 11.74 Q 10.56 11.07 12.33 11.07 L 14.14 11.07 L 14.14 10.94 Q 14.14 10.05 13.55 9.56 Q 12.97 9.07 11.90 9.07 Q 11.23 9.07 10.59 9.23 Q 9.95 9.40 9.36 9.72 L 9.36 8.52 Q 10.07 8.25 10.74 8.11 Q 11.40 7.97 12.04 7.97 Q 13.75 7.97 14.59 8.86 Q 15.43 9.75 15.43 11.55 Z" fill="#000000"/><path d="M 24.64 11.29 L 24.64 16.04 L 23.35 16.04 L 23.35 11.33 Q 23.35 10.21 22.91 9.66 Q 22.48 9.10 21.61 9.10 Q 20.56 9.10 19.95 9.77 Q 19.35 10.44 19.35 11.59 L 19.35 16.04 L 18.05 16.04 L 18.05 8.16 L 19.35 8.16 L 19.35 9.39 Q 19.81 8.68 20.44 8.33 Q 21.07 7.97 21.90 7.97 Q 23.25 7.97 23.95 8.82 Q 24.64 9.66 24.64 11.29 Z" fill="#000000"/><path d="M 26.30 8.16 L 27.67 8.16 L 30.13 14.77 L 32.59 8.16 L 33.96 8.16 L 31.01 16.04 L 29.25 16.04 L 26.30 8.16 Z" fill="#000000"/><path d="M 39.33 12.08 Q 37.76 12.08 37.15 12.44 Q 36.55 12.80 36.55 13.66 Q 36.55 14.35 37.00 14.76 Q 37.46 15.16 38.24 15.16 Q 39.31 15.16 39.96 14.40 Q 40.61 13.63 40.61 12.37 L 40.61 12.08 L 39.33 12.08 Z M 41.91 11.55 L 41.91 16.04 L 40.61 16.04 L 40.61 14.84 Q 40.17 15.56 39.51 15.90 Q 38.85 16.24 37.89 16.24 Q 36.68 16.24 35.97 15.57 Q 35.25 14.89 35.25 13.75 Q 35.25 12.42 36.14 11.74 Q 37.03 11.07 38.80 11.07 L 40.61 11.07 L 40.61 10.94 Q 40.61 10.05 40.03 9.56 Q 39.44 9.07 38.38 9.07 Q 37.70 9.07 37.06 9.23 Q 36.42 9.40 35.83 9.72 L 35.83 8.52 Q 36.54 8.25 37.21 8.11 Q 37.88 7.97 38.51 7.97 Q 40.22 7.97 41.06 8.86 Q 41.91 9.75 41.91 11.55 Z" fill="#000000"/><path d="M 49.59 8.40 L 49.59 9.62 Q 49.04 9.34 48.45 9.20 Q 47.86 9.06 47.23 9.06 Q 46.27 9.06 45.78 9.35 Q 45.30 9.65 45.30 10.24 Q 45.30 10.69 45.65 10.95 Q 45.99 11.20 47.03 11.43 L 47.47 11.53 Q 48.85 11.83 49.43 12.37 Q 50.01 12.90 50.01 13.87 Q 50.01 14.96 49.14 15.60 Q 48.28 16.24 46.76 16.24 Q 46.12 16.24 45.44 16.12 Q 44.75 16.00 43.99 15.75 L 43.99 14.42 Q 44.71 14.79 45.41 14.97 Q 46.10 15.16 46.79 15.16 Q 47.70 15.16 48.19 14.85 Q 48.68 14.54 48.68 13.97 Q 48.68 13.44 48.33 13.16 Q 47.97 12.88 46.77 12.62 L 46.32 12.51 Q 45.12 12.26 44.59 11.73 Q 44.05 11.21 44.05 10.30 Q 44.05 9.18 44.84 8.58 Q 45.63 7.97 47.07 7.97 Q 47.79 7.97 48.42 8.08 Q 49.06 8.19 49.59 8.40 Z" fill="#000000"/><path d="M 55.72 8.16 L 57.09 8.16 L 59.55 14.77 L 62.02 8.16 L 63.39 8.16 L 60.43 16.04 L 58.68 16.04 L 55.72 8.16 Z" fill="#000000"/><path d="M 70.19 8.40 L 70.19 9.62 Q 69.64 9.34 69.05 9.20 Q 68.46 9.06 67.83 9.06 Q 66.87 9.06 66.39 9.35 Q 65.90 9.65 65.90 10.24 Q 65.90 10.69 66.25 10.95 Q 66.59 11.20 67.63 11.43 L 68.08 11.53 Q 69.45 11.83 70.03 12.37 Q 70.61 12.90 70.61 13.87 Q 70.61 14.96 69.75 15.60 Q 68.88 16.24 67.36 16.24 Q 66.73 16.24 66.04 16.12 Q 65.36 16.00 64.60 15.75 L 64.60 14.42 Q 65.31 14.79 66.01 14.97 Q 66.71 15.16 67.39 15.16 Q 68.30 15.16 68.79 14.85 Q 69.29 14.54 69.29 13.97 Q 69.29 13.44 68.93 13.16 Q 68.58 12.88 67.37 12.62 L 66.92 12.51 Q 65.72 12.26 65.19 11.73 Q 64.65 11.21 64.65 10.30 Q 64.65 9.18 65.44 8.58 Q 66.23 7.97 67.68 7.97 Q 68.39 7.97 69.03 8.08 Q 69.66 8.19 70.19 8.40 Z" fill="#000000"/><path d="M 82.27 8.40 L 82.27 9.62 Q 81.72 9.34 81.13 9.20 Q 80.54 9.06 79.91 9.06 Q 78.95 9.06 78.47 9.35 Q 77.98 9.65 77.98 10.24 Q 77.98 10.69 78.33 10.95 Q 78.67 11.20 79.71 11.43 L 80.16 11.53 Q 81.53 11.83 82.11 12.37 Q 82.69 12.90 82.69 13.87 Q 82.69 14.96 81.83 15.60 Q 80.96 16.24 79.44 16.24 Q 78.81 16.24 78.12 16.12 Q 77.44 16.00 76.68 15.75 L 76.68 14.42 Q 77.39 14.79 78.09 14.97 Q 78.79 15.16 79.47 15.16 Q 80.38 15.16 80.87 14.85 Q 81.37 14.54 81.37 13.97 Q 81.37 13.44 81.01 13.16 Q 80.66 12.88 79.45 12.62 L 79.00 12.51 Q 77.80 12.26 77.27 11.73 Q 76.73 11.21 76.73 10.30 Q 76.73 9.18 77.52 8.58 Q 78.31 7.97 79.76 7.97 Q 80.47 7.97 81.11 8.08 Q 81.74 8.19 82.27 8.40 Z" fill="#000000"/><path d="M 83.83 8.16 L 85.20 8.16 L 87.66 14.77 L 90.12 8.16 L 91.49 8.16 L 88.54 16.04 L 86.78 16.04 L 83.83 8.16 Z" fill="#000000"/><path d="M 98.46 12.01 Q 98.46 10.60 97.88 9.83 Q 97.30 9.06 96.25 9.06 Q 95.21 9.06 94.63 9.83 Q 94.05 10.60 94.05 12.01 Q 94.05 13.41 94.63 14.18 Q 95.21 14.96 96.25 14.96 Q 97.30 14.96 97.88 14.18 Q 98.46 13.41 98.46 12.01 Z M 99.75 15.06 Q 99.75 17.07 98.86 18.05 Q 97.97 19.04 96.12 19.04 Q 95.44 19.04 94.84 18.93 Q 94.23 18.83 93.66 18.62 L 93.66 17.36 Q 94.23 17.67 94.79 17.82 Q 95.34 17.97 95.92 17.97 Q 97.19 17.97 97.83 17.30 Q 98.46 16.64 98.46 15.29 L 98.46 14.65 Q 98.06 15.35 97.43 15.70 Q 96.81 16.04 95.93 16.04 Q 94.49 16.04 93.60 14.94 Q 92.71 13.83 92.71 12.01 Q 92.71 10.18 93.60 9.08 Q 94.49 7.97 95.93 7.97 Q 96.81 7.97 97.43 8.32 Q 98.06 8.66 98.46 9.36 L 98.46 8.16 L 99.75 8.16 L 99.75 15.06 Z" fill="#000000"/><path d="M 106.07 8.16 L 107.44 8.16 L 109.90 14.77 L 112.36 8.16 L 113.73 8.16 L 110.78 16.04 L 109.02 16.04 L 106.07 8.16 Z" fill="#000000"/><path d="M 120.54 8.40 L 120.54 9.62 Q 119.99 9.34 119.40 9.20 Q 118.81 9.06 118.17 9.06 Q 117.21 9.06 116.73 9.35 Q 116.25 9.65 116.25 10.24 Q 116.25 10.69 116.59 10.95 Q 116.94 11.20 117.98 11.43 L 118.42 11.53 Q 119.80 11.83 120.38 12.37 Q 120.96 12.90 120.96 13.87 Q 120.96 14.96 120.09 15.60 Q 119.22 16.24 117.70 16.24 Q 117.07 16.24 116.38 16.12 Q 115.70 16.00 114.94 15.75 L 114.94 14.42 Q 115.66 14.79 116.35 14.97 Q 117.05 15.16 117.73 15.16 Q 118.65 15.16 119.14 14.85 Q 119.63 14.54 119.63 13.97 Q 119.63 13.44 119.27 13.16 Q 118.92 12.88 117.72 12.62 L 117.27 12.51 Q 116.06 12.26 115.53 11.73 Q 115.00 11.21 115.00 10.30 Q 115.00 9.18 115.78 8.58 Q 116.57 7.97 118.02 7.97 Q 118.74 7.97 119.37 8.08 Q 120.00 8.19 120.54 8.40 Z" fill="#000000"/><path d="M 128.85 14.86 L 128.85 19.04 L 127.55 19.04 L 127.55 8.16 L 128.85 8.16 L 128.85 9.36 Q 129.26 8.66 129.88 8.32 Q 130.50 7.97 131.36 7.97 Q 132.80 7.97 133.70 9.11 Q 134.59 10.25 134.59 12.11 Q 134.59 13.97 133.70 15.10 Q 132.80 16.24 131.36 16.24 Q 130.50 16.24 129.88 15.90 Q 129.26 15.56 128.85 14.86 Z M 133.25 12.11 Q 133.25 10.68 132.66 9.87 Q 132.07 9.06 131.05 9.06 Q 130.02 9.06 129.43 9.87 Q 128.85 10.68 128.85 12.11 Q 128.85 13.54 129.43 14.35 Q 130.02 15.16 131.05 15.16 Q 132.07 15.16 132.66 14.35 Q 133.25 13.54 133.25 12.11 Z" fill="#000000"/><path d="M 141.92 9.36 L 141.92 5.10 L 143.21 5.10 L 143.21 16.04 L 141.92 16.04 L 141.92 14.86 Q 141.51 15.56 140.89 15.90 Q 140.27 16.24 139.39 16.24 Q 137.97 16.24 137.07 15.10 Q 136.17 13.97 136.17 12.11 Q 136.17 10.25 137.07 9.11 Q 137.97 7.97 139.39 7.97 Q 140.27 7.97 140.89 8.32 Q 141.51 8.66 141.92 9.36 Z M 137.51 12.11 Q 137.51 13.54 138.10 14.35 Q 138.68 15.16 139.71 15.16 Q 140.74 15.16 141.33 14.35 Q 141.92 13.54 141.92 12.11 Q 141.92 10.68 141.33 9.87 Q 140.74 9.06 139.71 9.06 Q 138.68 9.06 138.10 9.87 Q 137.51 10.68 137.51 12.11 Z" fill="#000000"/><path d="M 149.86 5.10 L 149.86 6.17 L 148.63 6.17 Q 147.93 6.17 147.66 6.46 Q 147.39 6.74 147.39 7.47 L 147.39 8.16 L 149.52 8.16 L 149.52 9.17 L 147.39 9.17 L 147.39 16.04 L 146.09 16.04 L 146.09 9.17 L 144.85 9.17 L 144.85 8.16 L 146.09 8.16 L 146.09 7.62 Q 146.09 6.30 146.70 5.70 Q 147.31 5.10 148.64 5.10 L 149.86 5.10 Z" fill="#000000"/></g>
</g>
</svg>
